<?xml version="1.0"?>
<svg xmlns="http://www.w3.org/2000/svg" viewBox="13.6104 6.164 952.9878 1182.0698" width="952.988px" height="1182.07px" preserveAspectRatio="xMidYMid meet">
  <g transform="matrix(1, 0, 0, 1, -952.5, -171)" id="object-0" fill="#ff5722">
    <path opacity="1.000000" stroke="none" d=" M1641.871216,569.066467 C1644.196167,571.436523 1646.574951,573.756653 1648.836426,576.185730 C1656.654785,584.583435 1660.799438,594.369629 1660.827393,606.017639 C1660.867310,622.681091 1661.303467,639.343872 1661.619629,656.006042 C1661.669067,658.614441 1661.979370,661.217896 1662.195923,664.195068 C1675.144897,662.645447 1687.609863,661.153748 1701.795410,659.598999 C1706.347168,659.383362 1709.178467,659.230835 1712.009766,659.078308 C1727.082886,660.976501 1742.340332,661.964661 1757.188721,664.972229 C1783.822754,670.367004 1807.662598,682.574097 1830.883301,698.562256 C1832.484497,699.561584 1833.166260,699.878479 1833.848145,700.195374 C1835.380249,701.561584 1836.912354,702.927856 1839.353271,705.049316 C1843.229126,708.118469 1846.196167,710.432251 1849.250244,712.646057 C1849.337158,712.546082 1849.132324,712.377991 1849.375000,712.970947 C1850.355713,713.953369 1851.093506,714.342957 1851.811035,714.471313 C1851.790649,714.210144 1851.268555,714.254089 1851.478271,714.854309 C1852.397583,715.872864 1853.107300,716.291199 1853.801758,716.459961 C1853.786499,716.210388 1853.287476,716.244019 1853.502930,716.838257 C1854.437256,717.828247 1855.156128,718.223999 1855.860107,718.384644 C1855.845337,718.149475 1855.375244,718.181274 1855.558960,718.784912 C1856.433838,719.820984 1857.125000,720.253479 1857.804443,720.442383 C1857.792725,720.198730 1857.305542,720.225098 1857.493042,720.833496 C1858.377441,721.882080 1859.074219,722.322205 1859.857422,722.493896 C1859.943604,722.225464 1859.406250,722.054626 1859.542725,722.778259 C1860.435181,724.085022 1861.191162,724.668091 1861.852051,725.514404 C1861.757080,725.777649 1862.121338,726.202576 1862.121338,726.202576 C1862.121338,726.202576 1862.680908,726.197815 1862.906006,726.812622 C1864.082275,728.261475 1865.033325,729.095398 1866.134766,730.411987 C1866.797485,731.303833 1867.310181,731.712952 1867.953125,732.668152 C1868.660645,733.663330 1869.237671,734.112488 1869.830200,734.915649 C1870.024414,735.766724 1870.375366,736.051880 1871.125977,736.726685 C1872.213745,738.237610 1873.074097,739.146973 1873.967285,740.028198 C1874.000000,740.000000 1873.932861,740.052856 1874.047974,740.602234 C1874.745239,741.588928 1875.327393,742.026245 1875.959839,742.266846 C1876.010132,742.070190 1875.616577,741.970154 1875.766235,742.673096 C1876.590698,744.022766 1877.265503,744.669373 1877.930420,745.768860 C1878.507812,746.853516 1879.095215,747.485291 1879.849609,748.741882 C1880.642334,749.936279 1881.268066,750.505798 1881.890869,751.400391 C1881.887939,751.725464 1882.439697,752.069092 1882.470581,752.542297 C1882.791260,753.638977 1883.273315,754.018433 1883.972534,754.096558 C1883.997559,754.039185 1883.872681,754.030884 1883.967529,754.722412 C1884.669312,756.074097 1885.276367,756.734253 1885.834595,757.826538 C1886.289307,758.924316 1886.792725,759.589905 1887.467529,760.942017 C1888.924072,763.583862 1890.209473,765.539307 1891.582275,768.091064 C1893.088379,771.098145 1894.507080,773.508850 1896.010742,776.610229 C1896.712158,777.947937 1897.328491,778.594971 1897.759033,779.399780 C1897.573364,779.557495 1897.885742,779.931641 1897.953369,780.644165 C1898.644409,782.028015 1899.268066,782.699219 1899.760132,783.988037 C1900.941284,787.661133 1902.254028,790.716675 1903.623291,794.550171 C1904.369751,796.678894 1905.059570,798.029663 1905.629150,799.533264 C1905.508911,799.686035 1905.810791,799.931091 1905.824097,800.687134 C1906.454956,802.781311 1907.072510,804.119385 1907.576538,805.580078 C1907.463135,805.702759 1907.704346,805.933838 1907.745361,806.726624 C1910.373657,816.802673 1912.960938,826.085999 1915.143555,835.666382 C1914.965210,836.552856 1915.191650,837.142212 1915.375488,838.583252 C1916.069458,842.075195 1916.805908,844.715515 1917.132324,848.027100 C1917.180054,851.801208 1917.637817,854.903931 1917.968262,858.743652 C1918.060669,860.948303 1918.280273,862.416016 1918.354980,864.701538 C1918.703247,874.599792 1919.196533,883.680237 1919.081055,893.401489 C1918.190552,898.750244 1917.908813,903.458130 1917.332275,908.558350 C1916.697144,909.689453 1916.885864,910.250061 1917.086914,911.215454 C1916.434082,913.854492 1916.298340,915.910583 1915.845947,918.721497 C1915.202759,922.171509 1914.876099,924.866577 1914.266846,928.169434 C1913.433472,931.857422 1912.882568,934.937622 1912.001831,938.736755 C1908.115234,951.486511 1904.558350,963.517395 1901.001465,975.548340 C1893.314575,994.904419 1883.771729,1013.291260 1871.618408,1031.537109 C1870.602661,1033.362915 1870.198730,1034.285645 1869.309326,1035.527954 C1868.534546,1036.550049 1868.245117,1037.252563 1867.977783,1037.977539 C1868.000000,1038.000000 1867.948730,1037.962280 1867.520630,1038.125488 C1866.541138,1038.690674 1866.312378,1039.229614 1866.076538,1040.125366 C1865.746826,1040.345215 1865.558228,1041.114990 1865.558350,1041.114990 C1863.994995,1042.928711 1862.431641,1044.742432 1860.717651,1047.136108 C1853.853027,1055.346802 1847.139038,1062.977539 1839.682983,1071.405518 C1838.594360,1072.785278 1838.247681,1073.367676 1837.900879,1073.950073 C1837.900879,1073.950073 1837.999390,1074.000000 1837.478638,1074.107178 C1836.611938,1074.793213 1836.265991,1075.372070 1835.919922,1075.950928 C1835.919922,1075.950928 1836.000000,1076.002075 1835.476562,1076.110352 C1834.603027,1076.794189 1834.253052,1077.369873 1833.903076,1077.945679 C1833.903076,1077.945679 1834.000000,1078.000000 1833.474854,1078.107178 C1832.598145,1078.791138 1832.246582,1079.367676 1831.895020,1079.944336 C1831.895020,1079.944336 1831.995239,1079.995117 1831.459351,1080.104004 C1830.546753,1080.795532 1830.169922,1081.378174 1829.793213,1081.960693 C1829.793091,1081.960693 1829.923706,1081.952881 1829.303833,1082.112305 C1826.968384,1084.122192 1825.252808,1085.972900 1823.537354,1087.823486 C1812.690796,1096.088745 1802.158936,1104.810791 1790.940186,1112.535522 C1753.666626,1138.200195 1712.812500,1155.309448 1667.920410,1162.054688 C1661.651733,1162.996704 1660.876709,1166.620361 1660.016113,1171.529297 C1656.322998,1192.593994 1650.848511,1213.188843 1641.376587,1232.454956 C1611.733276,1292.749390 1563.839966,1331.131836 1499.670776,1349.783081 C1496.157593,1350.804199 1492.587524,1351.629883 1487.577148,1352.930664 C1474.102173,1354.973877 1462.093872,1356.633057 1449.323364,1358.164307 C1447.040527,1358.242554 1445.519897,1358.448730 1443.157715,1358.557617 C1410.733032,1358.737915 1379.149292,1359.300903 1347.567017,1359.227173 C1297.697266,1359.110840 1247.828369,1358.567261 1197.219971,1357.946533 C1194.405273,1357.775513 1192.329590,1357.862305 1189.334717,1357.921387 C1182.950195,1358.019409 1177.484741,1358.145020 1172.019287,1358.270752 C1172.019287,1358.270752 1171.124268,1358.002075 1170.192871,1357.297852 C1162.092529,1355.496582 1154.923706,1354.399658 1147.754761,1353.302734 C1131.398071,1347.885376 1114.780640,1343.135132 1098.754639,1336.872070 C1081.046509,1329.951660 1065.190430,1319.429688 1048.985107,1307.484375 C1047.415283,1306.450684 1046.744263,1306.116333 1046.073120,1305.782104 C1042.703247,1302.617676 1039.333374,1299.453247 1035.103760,1295.454834 C1033.559326,1294.107788 1032.874878,1293.594604 1032.190308,1293.081421 C1027.946167,1288.208374 1023.702148,1283.335327 1018.707825,1277.610596 C1017.330444,1276.379517 1016.703308,1276.000000 1016.076172,1275.620483 C1016.076111,1275.620483 1015.951172,1275.906860 1015.995483,1275.280029 C1015.370483,1274.047363 1014.701050,1273.441650 1014.031616,1272.835938 C1013.625549,1272.023926 1013.219482,1271.212036 1012.266479,1269.695190 C1011.158936,1268.600220 1010.598328,1268.210083 1010.037720,1267.820068 C1010.037720,1267.820068 1010.012756,1267.978027 1009.989502,1267.399780 C1009.393127,1266.301514 1008.819946,1265.781494 1008.246704,1265.261475 C1006.455444,1262.414185 1004.664124,1259.567017 1002.284241,1255.823242 C1001.197571,1254.445435 1000.699524,1253.964233 1000.201477,1253.482910 C999.438477,1251.844116 998.675537,1250.205444 997.314087,1247.524902 C995.891541,1245.386841 995.067505,1244.290649 994.243408,1243.194458 C993.311401,1240.984741 992.379456,1238.774902 990.957031,1235.585205 C989.880554,1233.627319 989.294373,1232.649292 988.708252,1231.671265 C983.583252,1216.127563 978.458252,1200.583984 972.934326,1183.939453 C972.357910,1182.554810 972.180420,1182.270996 972.002869,1181.987061 C971.740723,1179.716309 971.478516,1177.445435 970.843628,1174.077637 C970.307678,1172.650513 970.144470,1172.320435 969.981201,1171.990479 C969.224243,1163.864990 968.467346,1155.739624 967.561584,1146.149902 C967.125183,1143.754150 966.837585,1142.822632 966.550049,1141.891235 C966.449829,1133.198364 966.349609,1124.505493 966.273254,1114.018188 C966.234863,1106.809692 966.172607,1101.395630 966.110352,1095.981567 C966.468811,1089.279419 966.827271,1082.577393 967.173096,1074.440186 C967.061157,1072.630005 966.961792,1072.255127 966.862427,1071.880371 C967.717285,1050.311035 968.855652,1028.748535 969.375854,1007.171082 C971.202332,931.404114 972.816040,855.632019 974.547852,778.075195 C974.623840,769.875366 974.662476,763.462158 974.701111,757.048950 C975.013733,754.769409 975.540588,752.496155 975.607300,750.209473 C976.853577,707.486389 978.045288,664.761719 979.291992,620.655029 C979.211548,618.612549 979.087524,617.952393 978.963501,617.292236 C979.221191,613.331787 979.620483,609.374451 979.708191,605.410278 C979.911316,596.223572 982.129333,587.710205 988.455078,579.282471 C989.759583,577.652100 990.223083,576.939148 990.686523,576.226135 C1012.248596,557.592773 1038.478027,548.764893 1065.399292,542.440063 C1093.532837,535.830444 1122.125977,531.177185 1151.813965,525.442627 C1153.443481,525.007996 1153.777466,524.799377 1154.111450,524.590698 C1157.974365,524.218445 1161.837158,523.846191 1167.086792,523.301880 C1169.651855,522.761230 1170.830322,522.392578 1172.008667,522.023926 C1182.291748,521.197571 1192.575439,520.376953 1202.857910,519.543945 C1253.707153,515.424377 1304.639282,512.211670 1355.642700,514.300903 C1393.240356,515.840942 1430.755371,519.396790 1469.898682,522.241699 C1473.577637,522.660217 1475.665161,522.891357 1477.752686,523.122559 C1479.420898,523.408386 1481.088989,523.694214 1484.132202,524.158447 C1487.602539,524.566895 1489.697754,524.796997 1491.793091,525.027100 C1516.591675,529.794312 1541.449341,534.276306 1566.171753,539.410461 C1590.052734,544.369873 1612.946533,552.312134 1635.283325,564.932251 C1637.208130,565.987061 1638.151733,566.428345 1639.095215,566.869690 C1639.095215,566.869690 1639.579224,566.644165 1639.604248,567.087280 C1640.376587,568.042358 1641.123901,568.554382 1641.871216,569.066467 M1845.963379,762.805054 C1845.371582,762.317566 1844.779663,761.830017 1844.217407,761.808960 C1844.217407,761.808960 1844.683716,761.776428 1844.410400,760.620728 C1843.580811,759.836853 1842.751221,759.053040 1841.556152,757.149841 C1840.452637,756.073975 1839.348999,754.998108 1837.955322,752.790588 C1837.342163,752.347229 1836.729004,751.903870 1836.123169,751.875916 C1836.123169,751.875916 1836.538574,751.866577 1836.200073,750.670471 C1835.537842,750.215271 1834.875488,749.760010 1834.346191,749.551575 C1834.346191,749.551575 1834.590210,749.413635 1834.035645,748.200928 C1823.575928,736.854370 1812.267090,726.575256 1798.109863,719.861084 C1798.109863,719.861084 1798.288818,719.800720 1797.601196,718.739075 C1796.468872,718.204163 1795.336670,717.669250 1793.451416,716.286499 C1791.389160,715.414307 1789.326904,714.542114 1786.291504,712.544128 C1782.277100,710.889648 1778.262573,709.235229 1774.261841,707.731201 C1774.261841,707.731201 1774.411865,707.713501 1773.606201,706.714233 C1772.382812,706.416504 1771.159546,706.118774 1769.780029,705.358398 C1769.780029,705.358398 1769.292358,705.381653 1768.157104,704.409546 C1764.364014,703.303101 1760.570923,702.196594 1755.480835,700.346802 C1745.091187,698.480774 1734.765747,695.644897 1724.298462,694.953857 C1703.491333,693.580017 1682.678955,694.069336 1662.154785,701.176453 C1662.154785,701.176453 1661.783569,701.559387 1660.110840,701.544495 C1657.268555,702.195374 1654.430054,702.863770 1651.583130,703.493835 C1642.716187,705.456360 1634.823364,704.066895 1628.598511,696.268005 C1628.598511,696.268005 1628.165771,695.980347 1627.981201,694.300781 C1627.278564,690.049683 1626.158936,685.818420 1625.956421,681.543579 C1625.467407,671.226929 1625.462280,660.888245 1625.133911,650.562500 C1625.054321,648.061279 1624.477295,645.575928 1624.091675,642.815979 C1610.311523,647.297852 1597.497681,651.938721 1584.417969,655.639526 C1519.896973,673.895081 1453.756592,681.359131 1387.007202,683.632996 C1324.361572,685.767212 1261.700439,685.410950 1199.194824,679.717590 C1148.021484,675.056335 1097.355469,667.438232 1047.994507,652.627502 C1036.947632,649.312988 1025.961426,645.795898 1014.605530,642.265808 C1014.258118,644.538147 1013.922852,645.833862 1013.880310,647.139099 C1012.610168,686.106445 1011.183044,725.069946 1010.169495,764.044189 C1008.835266,815.349670 1007.787231,866.662720 1006.694092,917.974243 C1005.466064,975.618164 1004.530457,1033.269165 1003.043823,1090.906128 C1002.458191,1113.615234 1002.589172,1136.231934 1006.025513,1158.710693 C1008.638489,1175.803711 1011.360840,1192.912842 1019.279175,1208.498291 C1019.279175,1208.498291 1019.134949,1208.473755 1019.335754,1209.765625 C1020.164307,1211.245972 1020.992859,1212.726440 1021.919739,1214.098511 C1021.919739,1214.098511 1021.773560,1214.106812 1021.835449,1215.324463 C1022.489624,1216.306274 1023.143799,1217.288086 1023.846069,1218.131958 C1023.846069,1218.131958 1023.707520,1218.085815 1023.812195,1219.327026 C1024.492798,1220.327148 1025.173462,1221.327271 1026.097046,1223.686646 C1050.348267,1268.357056 1087.109253,1297.403809 1135.541260,1312.462769 C1162.610596,1320.879395 1190.341675,1323.367065 1218.356934,1323.482300 C1286.953247,1323.764526 1355.552002,1323.795776 1424.148315,1323.518921 C1452.247192,1323.405518 1479.940552,1319.673706 1506.454224,1309.766357 C1560.259033,1289.660645 1596.712402,1252.403809 1615.843750,1198.259888 C1621.528198,1182.172119 1624.366577,1165.469604 1626.229492,1148.548218 C1627.783936,1134.427246 1632.858154,1129.407959 1646.843750,1127.318970 C1649.806274,1126.876465 1652.789062,1126.571411 1655.758423,1126.172974 C1684.354370,1122.337036 1711.675049,1114.461060 1737.674805,1100.472778 C1737.674805,1100.472778 1737.998779,1099.960205 1739.325195,1099.816650 C1739.957764,1099.232300 1739.590332,1098.647827 1741.686523,1098.333618 C1741.686523,1098.333618 1741.999878,1097.897827 1743.135864,1097.823486 C1743.663208,1097.316528 1744.190552,1096.809448 1744.759766,1096.381470 C1744.759766,1096.381470 1744.843994,1096.411499 1746.178833,1096.147949 C1766.322876,1085.739990 1784.465332,1072.562134 1801.613647,1056.336060 C1801.987549,1055.796265 1802.361450,1055.256592 1803.928833,1054.131958 C1808.831421,1048.902466 1813.734009,1043.672852 1818.499023,1038.137085 C1818.499023,1038.137085 1818.692871,1038.449829 1819.884766,1037.886475 C1824.002319,1032.667847 1828.119873,1027.449219 1832.028564,1022.051758 C1832.028564,1022.051758 1832.227051,1022.244568 1833.417236,1021.594482 C1848.041992,1002.427673 1859.616699,981.570068 1867.790039,958.886108 C1882.556885,917.902283 1886.187256,876.010620 1877.509277,833.210388 C1872.842407,810.193359 1865.149292,788.430786 1850.241699,769.863892 C1850.241699,769.863892 1850.405029,770.011658 1850.112427,768.604675 C1849.432373,767.966370 1848.752197,767.328125 1848.279053,766.213257 C1848.279053,766.213257 1847.813354,765.983032 1847.664307,764.961121 C1847.126953,764.566650 1846.589600,764.172119 1846.030151,763.946350 C1846.030151,763.946350 1846.198975,763.967712 1845.963379,762.805054 M1039.962158,586.706177 C1032.503540,591.124939 1022.976807,592.190735 1016.357239,600.792847 C1021.295837,603.926392 1025.128174,607.206299 1029.561401,609.004028 C1040.647949,613.499817 1051.842285,617.869141 1063.285767,621.319885 C1107.800415,634.743103 1153.632690,641.614563 1199.765381,645.243835 C1305.618164,653.571350 1411.355103,653.733215 1516.535767,636.120361 C1547.509155,630.933838 1577.731445,623.163879 1606.850708,611.372070 C1612.882324,608.929504 1619.172974,606.384033 1622.796143,599.848206 C1618.406860,593.413635 1611.817627,590.854187 1605.587036,587.992859 C1587.029053,579.470459 1567.322510,574.478943 1547.532959,569.914368 C1478.343262,553.955261 1407.920776,549.376282 1337.237549,548.620422 C1274.570312,547.950256 1212.024780,551.376709 1149.934082,560.295593 C1113.017944,565.598267 1076.266724,572.082031 1039.962158,586.706177 z" style="paint-order: stroke markers;"></path><path opacity="1.000000" stroke="none" d=" M1220.368652,260.463745 C1223.921875,241.194336 1232.181152,225.059357 1243.835449,210.542068 C1245.084595,208.985931 1246.341064,207.415619 1247.757446,206.017227 C1253.813477,200.037949 1260.447266,199.075516 1266.672485,203.179703 C1272.708618,207.159225 1275.691772,215.694305 1272.924316,222.599197 C1271.587402,225.934967 1269.537598,229.121429 1267.252441,231.919586 C1245.653076,258.367981 1246.842773,291.757019 1269.473755,319.866302 C1275.736816,327.645538 1282.454590,335.058502 1288.721313,342.834869 C1299.940430,356.756714 1308.102539,372.194550 1311.911987,389.846710 C1317.143921,414.091125 1310.646118,436.040131 1298.932007,456.879333 C1295.530151,462.931061 1291.107300,468.456848 1286.770386,473.920471 C1283.051514,478.605652 1277.993042,480.881012 1271.811890,480.308838 C1260.485718,479.260345 1254.332397,468.742493 1259.392944,458.513916 C1261.146362,454.969727 1263.742798,451.832306 1266.037598,448.567780 C1285.458862,420.940063 1285.509155,392.601379 1265.707886,365.187073 C1259.482788,356.568665 1252.626709,348.365784 1245.610718,340.366241 C1225.673218,317.633820 1216.024780,291.717865 1220.368652,260.463745 z" style="paint-order: stroke markers;"></path><path opacity="1.000000" stroke="none" d=" M1324.036865,283.825256 C1308.152954,247.265656 1315.805176,214.800751 1338.601196,184.840393 C1345.042725,176.374283 1353.184570,175.114944 1360.412964,180.057587 C1366.368896,184.130127 1369.011841,190.517120 1366.674927,197.448700 C1365.213135,201.784164 1363.068848,206.125916 1360.289185,209.740784 C1346.197510,228.066971 1343.003540,257.625763 1360.400146,282.699615 C1366.462036,291.436676 1373.735596,299.323212 1380.059692,307.890625 C1387.355957,317.775146 1395.198120,327.443573 1401.070312,338.155762 C1415.957397,365.313141 1414.694336,393.247894 1401.623779,420.668793 C1397.657959,428.988495 1391.940430,436.601685 1386.244995,443.932343 C1380.524170,443.932343 1370.832153,452.393524 1364.017944,447.472412 C1357.006470,442.408783 1355.397217,433.370361 1360.236084,425.187744 C1361.753296,422.622467 1363.720215,420.319733 1365.518555,417.924805 C1380.470215,398.013367 1382.698608,376.379761 1372.875854,353.889313 C1369.334595,345.781311 1363.747681,338.435638 1358.368042,331.288788 C1346.769043,315.879547 1333.119385,301.978668 1324.036865,283.825256 z" style="paint-order: stroke markers;"></path><path opacity="1.000000" stroke="none" d=" M1748.004517,748.318665 C1748.004517,748.318665 1748.281372,748.680847 1749.065918,749.104187 C1764.625854,754.553284 1777.174805,763.504578 1789.858521,772.218201 C1789.858521,772.218201 1789.882935,772.086182 1790.022339,772.591431 C1790.777710,773.399109 1791.393799,773.701538 1792.009766,774.003967 C1793.025757,775.147339 1794.041748,776.290710 1795.754150,778.252930 C1797.626831,780.062134 1798.802979,781.052551 1799.979004,782.042969 C1799.979004,782.043030 1800.005859,781.997559 1800.107422,782.518677 C1800.779175,783.409912 1801.349365,783.780029 1801.919434,784.150146 C1801.919434,784.150146 1801.968384,784.030579 1802.049316,784.568970 C1802.675659,785.536133 1803.221191,785.964783 1803.766602,786.393433 C1803.766602,786.393433 1803.797363,786.257751 1803.829346,786.838135 C1804.894043,788.570496 1805.926758,789.722534 1806.959473,790.874634 C1807.306274,790.594727 1807.653198,790.314819 1807.667236,791.036987 C1808.544189,793.634521 1809.753906,795.229858 1810.963623,796.825195 C1811.284546,796.648376 1811.605347,796.471619 1811.701660,797.237732 C1832.722046,834.430115 1839.182617,873.091614 1829.517822,914.042175 C1826.488647,926.876526 1821.810425,939.321594 1817.671143,952.109131 C1817.455078,952.273315 1817.442261,952.815063 1816.939941,953.305542 C1814.927979,957.173523 1813.418091,960.550964 1811.949219,963.951782 C1811.990356,963.975220 1811.922363,963.902771 1811.376099,964.306335 C1807.723999,969.804382 1804.707642,974.956116 1801.495972,979.982971 C1789.990967,997.989319 1775.416016,1013.360229 1760.039795,1028.033813 C1760.039795,1028.033813 1760.000000,1028.000000 1759.495239,1028.125732 C1758.589600,1028.807251 1758.188721,1029.363159 1757.787842,1029.918945 C1757.787842,1029.918945 1757.913818,1029.960205 1757.386963,1030.016968 C1756.471436,1030.623291 1756.082642,1031.172974 1755.802979,1031.757324 C1755.912231,1031.791992 1755.735352,1031.646118 1755.108154,1031.831299 C1751.436523,1034.407593 1748.392212,1036.798706 1745.347778,1039.189697 C1745.347778,1039.189697 1745.359985,1039.298950 1744.660889,1039.467041 C1739.913208,1042.354370 1735.864502,1045.073486 1731.815796,1047.792480 C1731.815796,1047.792480 1732.000000,1047.995117 1731.228882,1047.980225 C1727.379028,1049.833618 1724.300293,1051.702026 1721.221558,1053.570312 C1721.221558,1053.570312 1720.492798,1053.679688 1719.619995,1054.000610 C1717.026978,1055.354248 1715.306763,1056.386841 1713.697266,1057.656494 C1713.807983,1057.893677 1713.544556,1057.440063 1712.865601,1057.495117 C1709.413452,1058.971924 1706.640259,1060.393799 1703.354736,1061.888306 C1702.545288,1062.136475 1702.248291,1062.311768 1701.234131,1062.520020 C1694.734863,1064.859741 1688.952759,1067.166504 1682.819702,1069.487305 C1682.468750,1069.501343 1681.988647,1070.013916 1681.988647,1070.013916 C1673.009399,1071.826416 1664.069580,1073.875122 1655.039307,1075.381714 C1646.816650,1076.753540 1638.599976,1077.060791 1631.289551,1069.420898 C1629.795044,1067.537964 1629.025879,1066.628540 1628.221191,1065.793701 C1628.185669,1065.868408 1628.335938,1065.937378 1628.274658,1065.247559 C1627.703003,1063.809937 1627.192505,1063.062134 1626.761597,1062.325073 C1626.841187,1062.335815 1626.926880,1062.200073 1626.951050,1061.249146 C1626.769653,1054.316772 1626.388428,1048.335571 1626.384888,1042.354004 C1626.334473,959.192017 1626.395874,876.029968 1626.237549,792.868286 C1626.220581,783.967529 1627.733398,775.726624 1632.282837,768.080139 C1632.912354,767.915955 1633.385986,767.550110 1634.369873,766.386108 C1635.435059,765.226501 1635.834351,764.663330 1636.233643,764.100098 C1636.233643,764.100098 1636.090332,764.087341 1636.617798,764.024292 C1637.591187,763.406250 1638.037109,762.851257 1638.483032,762.296265 C1638.483032,762.296265 1638.257080,762.275757 1638.827881,762.265869 C1640.268799,761.501770 1641.138794,760.747437 1642.008911,759.993164 C1642.008911,759.993164 1641.996094,759.995117 1642.646973,759.899536 C1645.156250,758.668518 1647.014771,757.533081 1648.873291,756.397705 C1648.873291,756.397705 1649.494995,756.377991 1650.257080,756.195923 C1651.605225,755.652405 1652.191284,755.291077 1652.777222,754.929688 C1652.777222,754.929688 1652.572021,755.051758 1653.427612,754.836670 C1673.631470,746.838867 1693.733643,742.718750 1714.568970,743.903320 C1725.761597,744.539612 1736.862305,746.794312 1748.004517,748.318665 M1784.530029,935.411621 C1787.456665,926.929260 1791.037354,918.608765 1793.185425,909.933594 C1799.303467,885.224060 1799.507690,860.618896 1790.731201,836.266113 C1770.873413,781.164917 1715.954346,767.927979 1672.562256,786.181885 C1664.786133,789.453003 1661.792847,793.771606 1661.864990,802.524231 C1662.487915,878.092407 1662.587646,953.664795 1662.880249,1029.235840 C1662.886353,1030.833252 1663.331421,1032.429199 1663.563965,1033.973267 C1701.828491,1033.578247 1762.430420,984.530518 1784.530029,935.411621 z" style="paint-order: stroke markers;"></path>
  </g>
</svg>